<?xml version="1.0" encoding="UTF-8"?>
<svg id="_Слой_2" data-name="Слой 2" xmlns="http://www.w3.org/2000/svg" viewBox="0 0 18.64 19.03">
  <defs>
    <style>
      .cls-1 {
        fill: #ea4335;
      }

      .cls-1, .cls-2, .cls-3, .cls-4 {
        fill-rule: evenodd;
      }

      .cls-2 {
        fill: #fbbc05;
      }

      .cls-3 {
        fill: #4285f4;
      }

      .cls-4 {
        fill: #34a853;
      }
    </style>
  </defs>
  <g id="_Слой_1-2" data-name=" Слой 1">
    <path class="cls-3" d="m18.47,7.9h-8.73v3.71h4.87c-.22,1.19-.88,2.06-1.88,2.73v2.39h3.07c1.8-1.66,2.84-4.09,2.84-6.99,0-.67-.06-1.32-.17-1.84Z"/>
    <path class="cls-4" d="m9.51,19.03c2.57,0,4.72-.85,6.3-2.3l-3.07-2.39c-.85.57-1.94.91-3.22.91-2.48,0-4.57-1.67-5.32-3.92H1.02v2.46c1.57,3.11,4.78,5.24,8.5,5.24h-.01Z"/>
    <path class="cls-2" d="m4.19,11.33c-.19-.57-.3-1.18-.3-1.81s.11-1.24.3-1.81v-2.46H1.01c-.67,1.33-1.01,2.79-1.01,4.27s.37,2.99,1.01,4.27c0,0,3.18-2.46,3.18-2.46Z"/>
    <path class="cls-1" d="m9.51,3.79c1.4,0,2.65.48,3.64,1.42l2.73-2.73c-1.65-1.53-3.8-2.48-6.36-2.48C5.8,0,2.58,2.13,1.02,5.24l3.18,2.46c.75-2.25,2.84-3.92,5.32-3.92h-.01Z"/>
  </g>
</svg>