<?xml version="1.0" encoding="UTF-8"?>
<svg id="_Слой_2" data-name="Слой 2" xmlns="http://www.w3.org/2000/svg" xmlns:xlink="http://www.w3.org/1999/xlink" viewBox="0 0 24.75 24.75">
  <defs>
    <style>
      .cls-1 {
        fill: #ff3d57;
      }

      .cls-2 {
        fill: #00d647;
      }

      .cls-3, .cls-4 {
        fill: none;
      }

      .cls-4 {
        clip-path: url(#clippath);
      }

      .cls-5 {
        fill: #ffcb00;
      }
    </style>
    <clipPath id="clippath">
      <rect class="cls-3" width="24.75" height="24.75"/>
    </clipPath>
  </defs>
  <g id="_Слой_1-2" data-name=" Слой 1">
    <g class="cls-4">
      <g>
        <path class="cls-1" d="m3.01,19.78c-.54,0-1.07-.15-1.53-.42s-.85-.67-1.11-1.14c-.26-.47-.39-1-.38-1.54s.17-1.06.46-1.52L5.88,6.49c.42-.68,1.1-1.16,1.88-1.34.39-.09.79-.1,1.18-.03.39.07.76.21,1.1.42s.63.48.86.81c.23.32.39.69.48,1.07.09.39.1.79.03,1.18-.07.39-.21.76-.42,1.1l-5.43,8.67c-.27.43-.65.79-1.1,1.04-.45.25-.95.38-1.46.38h0Z"/>
        <path class="cls-5" d="m12.37,19.78c-.54,0-1.07-.14-1.53-.42-.46-.27-.85-.67-1.11-1.14-.26-.47-.39-1-.38-1.54s.17-1.06.46-1.52l5.43-8.67c.2-.35.47-.66.8-.91.32-.25.69-.42,1.09-.52.39-.1.81-.12,1.21-.05.4.06.79.21,1.13.42.34.22.64.5.87.83s.39.71.48,1.11c.08.4.08.81,0,1.21s-.24.78-.47,1.11l-5.42,8.67c-.27.43-.65.79-1.1,1.04-.45.25-.95.38-1.46.38h0Z"/>
        <path class="cls-2" d="m21.72,19.77c1.67,0,3.02-1.32,3.02-2.95s-1.35-2.95-3.02-2.95-3.02,1.32-3.02,2.95,1.35,2.95,3.02,2.95Z"/>
      </g>
    </g>
  </g>
</svg>