<?xml version="1.0" encoding="UTF-8"?>
<svg id="_Слой_2" data-name="Слой 2" xmlns="http://www.w3.org/2000/svg" xmlns:xlink="http://www.w3.org/1999/xlink" viewBox="0 0 19.02 19.02">
  <defs>
    <style>
      .cls-1 {
        fill: #2684ff;
      }

      .cls-2 {
        fill: url(#_Безымянный_градиент);
      }
    </style>
    <linearGradient id="_Безымянный_градиент" data-name="Безымянный градиент" x1="8.21" y1="8.7" x2="3.28" y2=".17" gradientTransform="translate(0 18.91) scale(1 -1)" gradientUnits="userSpaceOnUse">
      <stop offset="0" stop-color="#0052cc"/>
      <stop offset=".92" stop-color="#2684ff"/>
    </linearGradient>
  </defs>
  <g id="_Слой_1-2" data-name="Слой 1">
    <path class="cls-2" d="m5.64,8.79c-.06-.07-.13-.13-.22-.17-.09-.04-.18-.05-.27-.04-.09.01-.18.04-.26.1-.08.05-.14.13-.18.21L.06,18.22c-.04.09-.06.18-.06.27,0,.09.03.19.08.27.05.08.12.15.2.19.08.05.18.07.27.07h6.49c.1,0,.21-.03.29-.08.09-.05.16-.13.2-.23,1.4-2.9.55-7.3-1.91-9.93Z"/>
    <path class="cls-1" d="m9.06.3c-1.16,1.79-1.84,3.85-1.97,5.98-.13,2.13.3,4.26,1.25,6.17l3.13,6.27c.05.09.12.17.21.23.09.05.19.08.29.08h6.49c.09,0,.19-.02.27-.07.08-.05.15-.11.2-.19.05-.08.08-.17.08-.27,0-.09-.02-.19-.06-.27C18.97,18.22,10.23.73,10.01.3c-.04-.09-.11-.16-.2-.22C9.73.03,9.63,0,9.54,0c-.1,0-.2.03-.28.08-.08.05-.15.13-.19.22h0Z"/>
  </g>
</svg>