<?xml version="1.0" encoding="UTF-8"?>
<svg id="_Слой_2" data-name="Слой 2" xmlns="http://www.w3.org/2000/svg" xmlns:xlink="http://www.w3.org/1999/xlink" viewBox="0 0 23.46 24.87">
  <defs>
    <style>
      .cls-1 {
        fill: #2684ff;
      }

      .cls-2 {
        fill: url(#_Безымянный_градиент_3-2);
      }

      .cls-3 {
        fill: url(#_Безымянный_градиент_3);
      }
    </style>
    <linearGradient id="_Безымянный_градиент_3" data-name="Безымянный градиент 3" x1="17.95" y1="18.45" x2="12.88" y2="13.46" gradientTransform="translate(0 24.76) scale(1 -1)" gradientUnits="userSpaceOnUse">
      <stop offset=".18" stop-color="#0052cc"/>
      <stop offset="1" stop-color="#2684ff"/>
    </linearGradient>
    <linearGradient id="_Безымянный_градиент_3-2" data-name="Безымянный градиент 3" x1="27.95" y1="26.72" x2="-189.1" y2="-175.89" xlink:href="#_Безымянный_градиент_3"/>
  </defs>
  <g id="_Слой_1-2" data-name="Слой 1">
    <path class="cls-1" d="m22.48,0h-11.3c0,1.43.54,2.81,1.49,3.82.96,1.01,2.25,1.58,3.61,1.58h2.08v2.13c0,1.43.54,2.81,1.49,3.82.96,1.01,2.25,1.58,3.6,1.58V1.04c0-.57-.44-1.04-.98-1.04Z"/>
    <path class="cls-3" d="m16.89,5.97H5.59c0,1.43.54,2.81,1.49,3.82.96,1.01,2.25,1.58,3.6,1.58h2.08v2.14c0,1.43.54,2.81,1.5,3.82.96,1.01,2.25,1.58,3.6,1.58V7.01c0-.57-.44-1.04-.98-1.04Z"/>
    <path class="cls-2" d="m11.3,11.93H0c0,1.43.54,2.81,1.49,3.82.96,1.01,2.25,1.58,3.61,1.58h2.09v2.13c0,1.43.54,2.8,1.49,3.82.95,1.01,2.25,1.58,3.6,1.59v-11.9c0-.57-.44-1.04-.98-1.04h0Z"/>
  </g>
</svg>