<?xml version="1.0" encoding="UTF-8"?>
<svg id="_Слой_2" data-name="Слой 2" xmlns="http://www.w3.org/2000/svg" xmlns:xlink="http://www.w3.org/1999/xlink" viewBox="0 0 20.09 20.07">
  <defs>
    <style>
      .cls-1 {
        fill: #2684ff;
      }

      .cls-2 {
        fill: url(#_Безымянный_градиент);
      }
    </style>
    <linearGradient id="_Безымянный_градиент" data-name="Безымянный градиент" x1="8.66" y1="827.91" x2="3.46" y2="836.91" gradientTransform="translate(0 -817.13)" gradientUnits="userSpaceOnUse">
      <stop offset="0" stop-color="#0052cc"/>
      <stop offset=".92" stop-color="#2684ff"/>
    </linearGradient>
  </defs>
  <g id="_Слой_1-2" data-name=" Слой 1">
    <path class="cls-2" d="m5.96,9.27c-.06-.08-.14-.14-.23-.18s-.19-.05-.29-.04-.19.05-.27.1c-.08.06-.14.13-.19.22L.06,19.22c-.04.09-.07.19-.06.29,0,.1.03.2.09.28.05.09.13.16.21.2.09.05.19.07.29.07h6.85c.11,0,.22-.03.31-.08.09-.06.17-.14.21-.24,1.48-3.06.58-7.71-2.01-10.48h.01Z"/>
    <path class="cls-1" d="m9.57.31c-1.23,1.89-1.94,4.06-2.07,6.31-.13,2.25.32,4.49,1.32,6.51l3.3,6.61c.05.1.12.18.22.24.09.06.2.09.31.09h6.85c.1,0,.2-.03.29-.07.09-.05.16-.12.21-.2.05-.09.08-.18.09-.28,0-.1-.02-.2-.06-.29C20.03,19.23,10.81.78,10.58.31c-.05-.09-.12-.17-.21-.23s-.19-.08-.3-.08-.21.03-.3.09-.16.14-.2.23h0Z"/>
  </g>
</svg>