<?xml version="1.0" encoding="UTF-8"?>
<svg id="_Слой_2" data-name="Слой 2" xmlns="http://www.w3.org/2000/svg" viewBox="0 0 22.89 21.24">
  <defs>
    <style>
      .cls-1 {
        fill: #fff;
      }

      .cls-2 {
        fill: #4b53bc;
      }

      .cls-3 {
        fill: #5059c9;
      }

      .cls-4 {
        opacity: .2;
      }

      .cls-4, .cls-5 {
        isolation: isolate;
      }

      .cls-6 {
        fill: #7b83eb;
      }

      .cls-5 {
        opacity: .1;
      }
    </style>
  </defs>
  <g id="_Слой_1-2" data-name=" Слой 1">
    <path class="cls-6" d="m12.16,6.68c1.84,0,3.34-1.49,3.34-3.34s-1.49-3.34-3.34-3.34-3.34,1.49-3.34,3.34,1.49,3.34,3.34,3.34Z"/>
    <path class="cls-5" d="m11.93,4.05h-3.02s0,.04.02.07h0s.01.05.02.07c.46,1.73,2.2,2.8,3.95,2.41v-1.59c0-.53-.43-.95-.95-.95h-.02Z"/>
    <path class="cls-4" d="m11.21,4.77h-2.06c.55,1.17,1.73,1.91,3.02,1.91v-.95c0-.53-.43-.95-.95-.95h-.01Z"/>
    <path class="cls-3" d="m19.68,6.92c1.38,0,2.5-1.12,2.5-2.5s-1.12-2.5-2.5-2.5-2.5,1.12-2.5,2.5,1.12,2.5,2.5,2.5Z"/>
    <path class="cls-3" d="m21.82,7.63h-5.62c-.25,0-.46.2-.46.46v5.8c-.03,1.73,1.15,3.25,2.84,3.64,1.06.22,2.15-.04,2.99-.72.84-.68,1.32-1.7,1.32-2.78v-5.32c0-.59-.48-1.07-1.07-1.07h0Z"/>
    <path class="cls-6" d="m17.89,8.71v6.8c0,2.59-1.74,4.86-4.24,5.53s-5.14-.42-6.44-2.67c-.14-.23-.26-.47-.36-.72-.09-.23-.17-.47-.24-.72-.12-.47-.18-.95-.18-1.43v-6.8c0-.28.11-.56.31-.76s.47-.31.76-.31h9.3c.28,0,.56.11.76.31.2.2.31.47.31.76h.02Z"/>
    <path class="cls-4" d="m11.21,4.77h-2.06c.55,1.17,1.73,1.91,3.02,1.91v-.95c0-.53-.43-.95-.95-.95h-.01Z"/>
    <path class="cls-5" d="m12.88,7.63v9.07c0,.44-.31.83-.74.92-.07.02-.14.03-.21.03h-5.07c-.09-.23-.17-.47-.24-.72-.12-.47-.18-.95-.18-1.43v-6.8c0-.28.11-.56.31-.76s.47-.31.76-.31c0,0,5.37,0,5.37,0Z"/>
    <path class="cls-4" d="m12.16,7.63v9.78c0,.07,0,.14-.03.21-.09.43-.48.74-.92.74h-4c-.14-.23-.26-.47-.36-.72-.09-.23-.17-.47-.24-.72-.12-.47-.18-.95-.18-1.43v-6.8c0-.28.11-.56.31-.76s.47-.31.76-.31h4.66Z"/>
    <path class="cls-4" d="m12.16,7.63v8.35c0,.52-.43.95-.95.95h-4.59c-.12-.47-.18-.95-.18-1.43v-6.8c0-.28.11-.56.31-.76s.47-.31.76-.31c0,0,4.65,0,4.65,0Z"/>
    <path class="cls-4" d="m7.51,7.63c-.28,0-.56.11-.76.31-.2.2-.31.47-.31.76v6.8c0,.48.06.96.18,1.43h3.88c.52,0,.95-.43.95-.95V7.63s-3.94,0-3.94,0Z"/>
    <path class="cls-2" d="m.95,4.77h9.54c.53,0,.95.43.95.95v9.54c0,.53-.43.95-.95.95H.95c-.53,0-.95-.43-.95-.95V5.72c0-.53.43-.95.95-.95Z"/>
    <path class="cls-1" d="m8.57,8.33h-2.14v5.74h-1.41v-5.74h-2.15v-1.41h5.69v1.41h.01Z"/>
  </g>
</svg>