<?xml version="1.0" encoding="UTF-8"?>
<svg id="_Слой_2" data-name="Слой 2" xmlns="http://www.w3.org/2000/svg" xmlns:xlink="http://www.w3.org/1999/xlink" viewBox="0 0 23.57 23.57">
  <defs>
    <style>
      .cls-1 {
        fill: #e01e5a;
      }

      .cls-2 {
        fill: #ecb22e;
      }

      .cls-3 {
        fill: #2eb67d;
      }

      .cls-4 {
        fill: #36c5f0;
      }

      .cls-5, .cls-6 {
        fill: none;
      }

      .cls-6 {
        clip-path: url(#clippath);
      }
    </style>
    <clipPath id="clippath">
      <rect class="cls-5" width="23.57" height="23.57"/>
    </clipPath>
  </defs>
  <g id="_Слой_1-2" data-name="Слой 1">
    <g class="cls-6">
      <g>
        <path class="cls-1" d="m5.33,14.72c0,1.29-1.05,2.34-2.34,2.34s-2.34-1.05-2.34-2.34,1.05-2.34,2.34-2.34h2.34v2.34Z"/>
        <path class="cls-1" d="m6.51,14.72c0-1.29,1.05-2.34,2.34-2.34s2.34,1.05,2.34,2.34v5.86c0,1.29-1.05,2.34-2.34,2.34s-2.34-1.05-2.34-2.34v-5.86Z"/>
        <path class="cls-4" d="m8.85,5.33c-1.29,0-2.34-1.05-2.34-2.34s1.05-2.34,2.34-2.34,2.34,1.05,2.34,2.34v2.34h-2.34Z"/>
        <path class="cls-4" d="m8.85,6.51c1.29,0,2.34,1.05,2.34,2.34s-1.05,2.34-2.34,2.34H2.99c-1.29,0-2.34-1.05-2.34-2.34s1.05-2.34,2.34-2.34h5.85Z"/>
        <path class="cls-3" d="m18.24,8.85c0-1.29,1.05-2.34,2.34-2.34s2.34,1.05,2.34,2.34-1.05,2.34-2.34,2.34h-2.34v-2.34Z"/>
        <path class="cls-3" d="m17.06,8.85c0,1.29-1.05,2.34-2.34,2.34s-2.34-1.05-2.34-2.34V2.99c0-1.29,1.05-2.34,2.34-2.34s2.34,1.05,2.34,2.34v5.86Z"/>
        <path class="cls-2" d="m14.72,18.24c1.29,0,2.34,1.05,2.34,2.34s-1.05,2.34-2.34,2.34-2.34-1.05-2.34-2.34v-2.34h2.34Z"/>
        <path class="cls-2" d="m14.72,17.06c-1.29,0-2.34-1.05-2.34-2.34s1.05-2.34,2.34-2.34h5.85c1.29,0,2.34,1.05,2.34,2.34s-1.05,2.34-2.34,2.34h-5.85Z"/>
      </g>
    </g>
  </g>
</svg>