<?xml version="1.0" encoding="UTF-8"?>
<svg id="_Слой_2" data-name="Слой 2" xmlns="http://www.w3.org/2000/svg" xmlns:xlink="http://www.w3.org/1999/xlink" viewBox="0 0 26.32 26.32">
  <defs>
    <style>
      .cls-1 {
        fill: #e01e5a;
      }

      .cls-2 {
        fill: #ecb22e;
      }

      .cls-3 {
        fill: #2eb67d;
      }

      .cls-4 {
        fill: #36c5f0;
      }

      .cls-5, .cls-6 {
        fill: none;
      }

      .cls-6 {
        clip-path: url(#clippath);
      }
    </style>
    <clipPath id="clippath">
      <rect class="cls-5" width="26.32" height="26.32"/>
    </clipPath>
  </defs>
  <g id="_Слой_1-2" data-name="Слой 1">
    <g class="cls-6">
      <g>
        <path class="cls-1" d="m5.95,16.44c0,1.44-1.17,2.61-2.61,2.61s-2.61-1.17-2.61-2.61,1.17-2.61,2.61-2.61h2.61v2.61Z"/>
        <path class="cls-1" d="m7.27,16.44c0-1.44,1.17-2.61,2.61-2.61s2.61,1.17,2.61,2.61v6.54c0,1.44-1.17,2.61-2.61,2.61s-2.61-1.17-2.61-2.61v-6.54Z"/>
        <path class="cls-4" d="m9.88,5.95c-1.44,0-2.61-1.17-2.61-2.61s1.17-2.61,2.61-2.61,2.61,1.17,2.61,2.61v2.61h-2.61Z"/>
        <path class="cls-4" d="m9.88,7.27c1.44,0,2.61,1.17,2.61,2.61s-1.17,2.61-2.61,2.61H3.34c-1.44,0-2.61-1.17-2.61-2.61s1.17-2.61,2.61-2.61h6.54Z"/>
        <path class="cls-3" d="m20.37,9.88c0-1.44,1.18-2.61,2.61-2.61s2.61,1.17,2.61,2.61-1.18,2.61-2.61,2.61h-2.61v-2.61Z"/>
        <path class="cls-3" d="m19.05,9.88c0,1.44-1.17,2.61-2.61,2.61s-2.61-1.17-2.61-2.61V3.34c0-1.44,1.17-2.61,2.61-2.61s2.61,1.17,2.61,2.61v6.54Z"/>
        <path class="cls-2" d="m16.44,20.37c1.44,0,2.61,1.17,2.61,2.61s-1.17,2.61-2.61,2.61-2.61-1.17-2.61-2.61v-2.61h2.61Z"/>
        <path class="cls-2" d="m16.44,19.05c-1.44,0-2.61-1.17-2.61-2.61s1.17-2.61,2.61-2.61h6.54c1.44,0,2.61,1.17,2.61,2.61s-1.17,2.61-2.61,2.61h-6.54Z"/>
      </g>
    </g>
  </g>
</svg>