<?xml version="1.0" standalone="no"?>
<!DOCTYPE svg PUBLIC "-//W3C//DTD SVG 20010904//EN"
 "http://www.w3.org/TR/2001/REC-SVG-20010904/DTD/svg10.dtd">
<svg version="1.0" xmlns="http://www.w3.org/2000/svg"
 width="1456.000000pt" height="1456.000000pt" viewBox="0 0 1456.000000 1456.000000"
 preserveAspectRatio="xMidYMid meet">
<metadata>
Created by potrace 1.14, written by Peter Selinger 2001-2017
</metadata>
<g transform="translate(0.000000,1456.000000) scale(0.100000,-0.100000)"
fill="#000000" stroke="none">
<path d="M6545 9821 c-254 -72 -409 -317 -363 -575 15 -83 71 -188 136 -253
69 -69 71 -70 147 -107 115 -56 262 -64 381 -22 52 18 119 52 146 74 130 105
196 240 196 401 0 141 -43 246 -143 347 -101 103 -197 144 -345 149 -68 3
-112 -1 -155 -14z"/>
<path d="M10280 8367 c-3 -3 -30 -8 -60 -12 -30 -3 -62 -8 -70 -10 -8 -3 -46
-9 -85 -15 -118 -17 -137 -20 -215 -36 -41 -8 -85 -16 -98 -19 -13 -2 -32 -7
-42 -10 -10 -3 -28 -8 -39 -10 -44 -10 -58 -13 -101 -24 -25 -7 -56 -16 -70
-22 -14 -5 -34 -11 -45 -13 -108 -23 -362 -130 -520 -220 -93 -52 -231 -171
-314 -271 -32 -38 -123 -192 -140 -235 -7 -19 -21 -56 -31 -81 -17 -45 -42
-138 -45 -169 -2 -16 -10 -55 -22 -105 -4 -16 -9 -519 -10 -1116 l-4 -1087 38
-7 c57 -11 76 -14 98 -19 11 -3 112 -23 225 -46 113 -23 214 -43 225 -46 32
-6 68 -13 95 -18 30 -6 55 -12 93 -21 24 -6 27 -4 28 16 0 13 0 474 1 1024 0
550 5 1027 9 1060 16 106 25 136 67 225 83 172 281 310 512 356 14 3 40 9 59
14 19 5 38 7 42 4 4 -2 10 0 14 6 4 6 10 8 13 6 4 -2 50 4 102 15 52 11 111
22 130 24 19 3 42 6 50 8 8 2 37 7 63 12 27 4 51 13 53 19 6 16 0 829 -6 823z"/>
<path d="M1638 8355 c-2 -2 -30 -6 -63 -10 -58 -6 -175 -34 -226 -53 -13 -5
-27 -10 -32 -11 -4 0 -37 -14 -73 -31 -37 -16 -69 -30 -72 -30 -22 0 -221
-149 -287 -214 l-81 -81 0 175 1 175 -30 -1 c-34 -1 -59 -5 -200 -34 -55 -11
-113 -23 -130 -25 -16 -3 -43 -8 -60 -12 -16 -3 -39 -7 -50 -9 -11 -2 -31 -5
-45 -9 -14 -3 -36 -7 -50 -10 -14 -2 -38 -7 -55 -9 -16 -3 -41 -8 -55 -11 -14
-3 -38 -8 -55 -11 -16 -3 -37 -7 -45 -9 -8 -2 -18 -4 -22 -4 -13 -2 -10 -3219
3 -3227 6 -3 28 -8 48 -11 20 -2 43 -7 51 -10 8 -3 24 -7 35 -8 30 -4 83 -14
155 -31 36 -8 76 -17 90 -19 37 -5 90 -16 150 -30 3 -1 25 -5 50 -9 51 -10 52
-10 143 -29 37 -8 67 -14 68 -13 1 0 2 519 4 1151 1 633 5 1168 9 1190 4 22
19 67 33 100 13 33 27 68 30 78 3 9 9 17 14 17 5 0 9 6 9 13 0 15 81 102 130
138 95 71 215 116 335 124 101 7 141 7 180 1 164 -26 278 -79 374 -174 53 -52
77 -86 108 -152 22 -47 43 -103 47 -125 4 -22 9 -47 11 -55 2 -8 4 -495 4
-1081 l1 -1066 123 -23 c141 -27 120 -23 222 -45 44 -9 90 -19 103 -21 39 -7
65 -12 192 -38 69 -14 134 -26 145 -26 20 0 20 6 20 1135 -1 1022 1 1142 16
1212 31 149 104 261 219 342 105 74 205 108 345 117 108 8 123 7 215 -10 156
-29 326 -141 387 -253 10 -18 21 -33 25 -33 5 0 8 -6 8 -13 0 -7 8 -31 19 -53
44 -94 45 -112 45 -1229 l1 -1059 36 -8 c20 -4 49 -10 65 -13 16 -4 47 -10 69
-14 22 -5 119 -24 216 -44 96 -20 188 -38 205 -41 69 -13 90 -18 145 -31 33
-7 61 -10 63 -7 6 11 -1 2343 -7 2393 -4 25 -13 79 -22 120 -9 41 -18 83 -20
95 -14 65 -46 150 -108 284 -17 37 -99 161 -124 190 -13 14 -23 28 -23 31 0 8
-86 95 -151 153 -89 80 -233 166 -386 232 -42 17 -186 63 -218 69 -11 2 -29 5
-40 8 -155 36 -479 36 -598 1 -10 -3 -31 -7 -48 -9 -60 -8 -218 -65 -299 -109
-73 -39 -185 -117 -238 -166 -24 -22 -46 -40 -49 -40 -3 0 -28 20 -56 44 -105
88 -241 169 -402 237 -36 15 -158 47 -225 60 -57 10 -314 22 -322 14z"/>
<path d="M12608 8355 c-2 -1 -32 -5 -68 -8 -164 -15 -289 -44 -450 -104 -86
-32 -237 -100 -250 -113 -3 -3 -25 -16 -49 -29 -49 -26 -188 -123 -240 -167
-57 -49 -204 -197 -248 -251 -54 -65 -151 -210 -193 -288 -60 -110 -144 -322
-157 -395 -2 -14 -8 -41 -13 -60 -5 -19 -12 -51 -15 -70 -3 -19 -8 -48 -11
-65 -26 -142 -21 -457 10 -585 3 -14 8 -38 10 -55 3 -16 10 -46 15 -65 5 -19
17 -62 26 -95 9 -33 20 -64 24 -70 4 -5 13 -28 20 -50 38 -111 164 -336 248
-442 91 -115 198 -224 293 -301 36 -29 71 -58 79 -64 23 -19 113 -78 119 -78
3 0 13 -6 21 -14 59 -50 356 -178 466 -201 40 -8 60 -13 60 -15 0 -3 36 -9
155 -29 90 -15 155 -18 295 -16 99 1 189 5 200 8 11 3 40 8 65 11 226 31 496
134 695 264 78 52 215 155 215 164 0 4 4 8 9 8 10 0 135 126 193 194 53 62
158 210 158 224 0 6 4 12 8 12 6 0 124 221 128 240 4 24 18 67 24 75 10 15 47
141 64 220 36 163 40 199 40 385 1 185 -5 258 -31 375 -4 17 -8 35 -9 40 -1 6
-7 30 -14 55 -7 25 -13 50 -15 55 -1 6 -4 17 -7 25 -3 8 -16 44 -29 80 -118
333 -351 638 -653 855 -16 11 -34 26 -41 33 -8 6 -16 12 -19 12 -3 0 -21 11
-42 25 -61 41 -224 121 -319 155 -111 40 -118 42 -130 45 -5 2 -39 10 -74 20
-35 9 -76 18 -90 20 -41 6 -102 16 -125 22 -23 5 -342 13 -348 8z m250 -769
c121 -13 316 -74 365 -114 9 -8 17 -12 17 -8 0 4 13 -2 29 -13 16 -12 32 -21
35 -21 3 0 14 -6 23 -14 103 -83 151 -125 169 -146 12 -14 34 -38 48 -53 97
-105 200 -321 231 -487 11 -61 14 -293 4 -345 -5 -27 -11 -59 -13 -70 -7 -36
-27 -110 -35 -130 -37 -87 -106 -218 -131 -250 -16 -21 -30 -41 -30 -44 0 -15
-169 -178 -219 -211 -28 -19 -57 -40 -64 -45 -14 -13 -166 -87 -181 -89 -6 -1
-15 -4 -21 -7 -5 -4 -23 -10 -40 -14 -16 -5 -32 -9 -35 -10 -42 -14 -100 -24
-175 -31 -94 -9 -119 -10 -128 -6 -4 2 -36 5 -70 7 -34 2 -73 5 -87 8 -515 96
-875 521 -885 1042 -1 78 17 234 30 255 2 3 6 19 9 34 12 69 99 252 154 325
190 253 447 403 752 437 30 4 56 7 57 8 4 3 139 -3 191 -8z"/>
<path d="M7029 8305 c-3 -2 -22 -7 -43 -11 -21 -3 -48 -8 -60 -10 -11 -3 -34
-8 -51 -10 -16 -3 -95 -19 -175 -36 -80 -16 -158 -32 -175 -34 -16 -3 -48 -10
-70 -15 -53 -13 -73 -17 -116 -23 -20 -3 -42 -8 -50 -11 -13 -5 -15 -223 -14
-1624 0 -891 3 -1622 6 -1626 4 -3 20 -8 35 -10 16 -2 29 -4 29 -5 0 -2 34
-10 60 -15 11 -1 61 -13 110 -25 205 -49 261 -62 280 -66 11 -2 31 -6 45 -9
14 -3 34 -7 45 -9 11 -2 47 -11 80 -21 33 -9 71 -17 85 -18 l25 -2 1 1793 1
1792 -22 0 c-12 0 -24 -2 -26 -5z"/>
</g>
</svg>
